<svg xmlns="http://www.w3.org/2000/svg" viewBox="0 0 24 24" fill="none">
  <path
    d="M12 8V13"
    stroke="currentColor"
    stroke-width="2.2"
    stroke-linecap="round"
  />
  <path
    d="M12 17.01L12.01 16.9989"
    stroke="currentColor"
    stroke-width="2.6"
    stroke-linecap="round"
  />
  <path
    d="M10.29 3.86002L1.82002 18C1.64539 18.3024 1.55301 18.6453 1.5521 18.9945C1.5512 19.3437 1.6418 19.6871 1.81485 19.9904C1.9879 20.2937 2.23738 20.5462 2.53853 20.7228C2.83968 20.8994 3.18185 20.9938 3.53002 20.996H20.47C20.8182 20.9938 21.1604 20.8994 21.4615 20.7228C21.7627 20.5462 22.0121 20.2937 22.1852 19.9904C22.3582 19.6871 22.4488 19.3437 22.4479 18.9945C22.447 18.6453 22.3547 18.3024 22.18 18L13.71 3.86002C13.5333 3.56565 13.2841 3.32198 12.9864 3.15204C12.6886 2.9821 12.3523 2.8916 12.01 2.88916C11.6677 2.88672 11.3301 2.97241 11.03 3.13808C10.7298 3.30375 10.4772 3.54384 10.296 3.83567L10.29 3.86002Z"
    stroke="currentColor"
    stroke-width="1.8"
    stroke-linecap="round"
    stroke-linejoin="round"
  />
</svg>
